# xmcd
#
# Track frame offsets: 
#        150
#        28561
#        56493
#        87323
#        122938
#        141780
#        170642
#        218562
#
# Disc length: 3364 seconds
#
# Revision: 0
# Processed by: cddbd v1.5.2PL0 Copyright (c) Steve Scherf et al.
# Submitted via: ExactAudioCopyFreeDBPlugin 1.0
#
DISCID=6d0d2208
DTITLE=Lester Butler featuring 13 - Live @ Tamines 1997  disc 2
DYEAR=2015
DGENRE=Blues
TTITLE0=Boogie Disease
TTITLE1=Last Night
TTITLE2=So Mean To Me
TTITLE3=Sweet Tooth
TTITLE4=Black Hearted Woman
TTITLE5=Cut That Out
TTITLE6=I've Got A Girl
TTITLE7=Automatic (1998 Moulin Blues Festival)
EXTD=
EXTT0=
EXTT1=
EXTT2=
EXTT3=
EXTT4=
EXTT5=
EXTT6=
EXTT7=
PLAYORDER=
